<svg width="15" height="22" viewBox="0 0 15 22" fill="none" xmlns="http://www.w3.org/2000/svg">
<path id="Arrow 2" d="M6.36377 21C6.36377 21.5523 6.81148 22 7.36377 22C7.91605 22 8.36377 21.5523 8.36377 21H7.36377H6.36377ZM8.07088 0.292892C7.68035 -0.0976315 7.04719 -0.0976315 6.65666 0.292892L0.292702 6.65685C-0.0978227 7.04738 -0.0978227 7.68054 0.292702 8.07107C0.683226 8.46159 1.31639 8.46159 1.70692 8.07107L7.36377 2.41421L13.0206 8.07107C13.4111 8.46159 14.0443 8.46159 14.4348 8.07107C14.8254 7.68054 14.8254 7.04738 14.4348 6.65685L8.07088 0.292892ZM7.36377 21H8.36377L8.36377 1H7.36377H6.36377L6.36377 21H7.36377Z" fill="black"/>
</svg>
