<svg width="15" height="22" viewBox="0 0 15 22" fill="none" xmlns="http://www.w3.org/2000/svg">
<path id="Arrow 1" d="M8.36377 1C8.36377 0.447715 7.91605 0 7.36377 0C6.81148 0 6.36377 0.447715 6.36377 1H7.36377L8.36377 1ZM6.65666 21.7071C7.04719 22.0976 7.68035 22.0976 8.07088 21.7071L14.4348 15.3431C14.8254 14.9526 14.8254 14.3195 14.4348 13.9289C14.0443 13.5384 13.4111 13.5384 13.0206 13.9289L7.36377 19.5858L1.70692 13.9289C1.31639 13.5384 0.683226 13.5384 0.292702 13.9289C-0.0978227 14.3195 -0.0978227 14.9526 0.292702 15.3431L6.65666 21.7071ZM7.36377 1H6.36377L6.36377 21H7.36377H8.36377L8.36377 1L7.36377 1Z" fill="black"/>
</svg>
